<?xml version="1.0" encoding="iso-8859-1"?>
<!-- Generator: Adobe Illustrator 19.0.0, SVG Export Plug-In . SVG Version: 6.00 Build 0)  -->
<svg version="1.1" id="Layer_1" xmlns="http://www.w3.org/2000/svg" xmlns:xlink="http://www.w3.org/1999/xlink" x="0px" y="0px"
	 viewBox="0 0 511.9 511.9" style="enable-background:new 0 0 511.9 511.9;" xml:space="preserve">
<g>
	<g>
		<path d="M255.95,0C114.818,0,0.002,114.824,0.002,255.952S114.818,511.9,255.95,511.9s255.948-114.824,255.948-255.952
			S397.082,0,255.95,0z M255.95,503.9C119.23,503.9,8.002,392.664,8.002,255.948S119.23,8,255.95,8s247.948,111.236,247.948,247.952
			S392.67,503.9,255.95,503.9z"/>
	</g>
</g>
<g>
	<g>
		<path d="M503.95,227.684h-496c-2.208,0-4,1.792-4,4c0,2.208,1.792,4,4,4h496c2.208,0,4-1.792,4-4
			C507.95,229.476,506.158,227.684,503.95,227.684z"/>
	</g>
</g>
<g>
	<g>
		<path d="M495.95,179.684h-480c-2.208,0-4,1.792-4,4c0,2.208,1.792,4,4,4h480c2.208,0,4-1.792,4-4
			C499.95,181.476,498.158,179.684,495.95,179.684z"/>
	</g>
</g>
<g>
	<g>
		<path d="M475.95,131.684h-440c-2.208,0-4,1.792-4,4c0,2.208,1.792,4,4,4h440c2.208,0,4-1.792,4-4
			C479.95,133.476,478.158,131.684,475.95,131.684z"/>
	</g>
</g>
<g>
	<g>
		<path d="M443.95,83.684h-376c-2.208,0-4,1.792-4,4c0,2.208,1.792,4,4,4h376c2.208,0,4-1.792,4-4
			C447.95,85.476,446.158,83.684,443.95,83.684z"/>
	</g>
</g>
<g>
	<g>
		<path d="M383.95,35.684h-256c-2.208,0-4,1.792-4,4c0,2.208,1.792,4,4,4h256c2.208,0,4-1.792,4-4
			C387.95,37.476,386.158,35.684,383.95,35.684z"/>
	</g>
</g>
<g>
	<g>
		<path d="M383.95,467.684h-256c-2.208,0-4,1.792-4,4s1.792,4,4,4h256c2.208,0,4-1.792,4-4S386.158,467.684,383.95,467.684z"/>
	</g>
</g>
<g>
	<g>
		<path d="M443.95,419.684h-376c-2.208,0-4,1.792-4,4s1.792,4,4,4h376c2.208,0,4-1.792,4-4S446.158,419.684,443.95,419.684z"/>
	</g>
</g>
<g>
	<g>
		<path d="M475.95,371.684h-440c-2.208,0-4,1.792-4,4s1.792,4,4,4h440c2.208,0,4-1.792,4-4S478.158,371.684,475.95,371.684z"/>
	</g>
</g>
<g>
	<g>
		<path d="M495.95,323.684h-480c-2.208,0-4,1.792-4,4s1.792,4,4,4h480c2.208,0,4-1.792,4-4S498.158,323.684,495.95,323.684z"/>
	</g>
</g>
<g>
	<g>
		<path d="M503.95,275.684h-496c-2.208,0-4,1.792-4,4s1.792,4,4,4h496c2.208,0,4-1.792,4-4S506.158,275.684,503.95,275.684z"/>
	</g>
</g>
<g>
	<g>
		<path d="M471.95,123.684c-2.208,0-4,1.792-4,4v256c0,2.208,1.792,4,4,4s4-1.792,4-4v-256
			C475.95,125.476,474.158,123.684,471.95,123.684z"/>
	</g>
</g>
<g>
	<g>
		<path d="M231.95,3.684c-2.208,0-4,1.792-4,4v496c0,2.208,1.792,4,4,4s4-1.792,4-4v-496C235.95,5.476,234.158,3.684,231.95,3.684z"
			/>
	</g>
</g>
<g>
	<g>
		<path d="M183.95,11.684c-2.208,0-4,1.792-4,4v480c0,2.208,1.792,4,4,4s4-1.792,4-4v-480
			C187.95,13.476,186.158,11.684,183.95,11.684z"/>
	</g>
</g>
<g>
	<g>
		<path d="M135.95,31.684c-2.208,0-4,1.792-4,4v440c0,2.208,1.792,4,4,4s4-1.792,4-4v-440
			C139.95,33.476,138.158,31.684,135.95,31.684z"/>
	</g>
</g>
<g>
	<g>
		<path d="M87.95,67.684c-2.208,0-4,1.792-4,4v372c0,2.208,1.792,4,4,4s4-1.792,4-4v-372C91.95,69.476,90.158,67.684,87.95,67.684z"
			/>
	</g>
</g>
<g>
	<g>
		<path d="M39.95,123.684c-2.208,0-4,1.792-4,4v256c0,2.208,1.792,4,4,4s4-1.792,4-4v-256
			C43.95,125.476,42.158,123.684,39.95,123.684z"/>
	</g>
</g>
<g>
	<g>
		<path d="M423.95,67.684c-2.208,0-4,1.792-4,4v372c0,2.208,1.792,4,4,4s4-1.792,4-4v-372
			C427.95,69.476,426.158,67.684,423.95,67.684z"/>
	</g>
</g>
<g>
	<g>
		<path d="M375.95,31.684c-2.208,0-4,1.792-4,4v440c0,2.208,1.792,4,4,4s4-1.792,4-4v-440
			C379.95,33.476,378.158,31.684,375.95,31.684z"/>
	</g>
</g>
<g>
	<g>
		<path d="M327.95,11.684c-2.208,0-4,1.792-4,4v480c0,2.208,1.792,4,4,4s4-1.792,4-4v-480
			C331.95,13.476,330.158,11.684,327.95,11.684z"/>
	</g>
</g>
<g>
	<g>
		<path d="M279.95,3.684c-2.208,0-4,1.792-4,4v496c0,2.208,1.792,4,4,4s4-1.792,4-4v-496C283.95,5.476,282.158,3.684,279.95,3.684z"
			/>
	</g>
</g>
<g>
</g>
<g>
</g>
<g>
</g>
<g>
</g>
<g>
</g>
<g>
</g>
<g>
</g>
<g>
</g>
<g>
</g>
<g>
</g>
<g>
</g>
<g>
</g>
<g>
</g>
<g>
</g>
<g>
</g>
</svg>
